<svg width="39" height="39" viewBox="0 0 39 39" fill="none" xmlns="http://www.w3.org/2000/svg">
<path d="M32.5094 6.30955C28.9669 2.75858 24.2492 0.805542 19.2355 0.805542C8.88699 0.805542 0.46612 9.22641 0.46612 19.575C0.46612 22.8807 1.3285 26.1104 2.96871 28.9597L0.305481 38.6826L10.2567 36.0701C12.996 37.5665 16.0819 38.3528 19.2271 38.3528H19.2355C29.5756 38.3528 38.1825 29.932 38.1825 19.5834C38.1825 14.5698 36.0519 9.86052 32.5094 6.30955ZM19.2355 35.1908C16.4286 35.1908 13.6808 34.4383 11.2881 33.0179L10.7217 32.6797L4.82029 34.2269L6.39286 28.4693L6.02085 27.8775C4.45673 25.3918 3.63663 22.5256 3.63663 19.575C3.63663 10.9765 10.6371 3.97605 19.244 3.97605C23.4122 3.97605 27.3267 5.59935 30.2689 8.55004C33.2111 11.5007 35.0204 15.4152 35.012 19.5834C35.012 28.1903 27.834 35.1908 19.2355 35.1908ZM27.7917 23.5064C27.3267 23.2697 25.0185 22.1367 24.5874 21.9845C24.1562 21.8239 23.8433 21.7478 23.5305 22.2213C23.2177 22.6947 22.3215 23.7431 22.0425 24.0644C21.7719 24.3772 21.4929 24.4195 21.0279 24.1828C18.2717 22.8046 16.4624 21.7224 14.6446 18.6027C14.1627 17.7741 15.1266 17.8333 16.0228 16.0409C16.1749 15.7281 16.0988 15.4575 15.9805 15.2208C15.8621 14.9841 14.9236 12.6759 14.5347 11.7375C14.1543 10.8244 13.7653 10.9512 13.4779 10.9343C13.2073 10.9174 12.8945 10.9174 12.5817 10.9174C12.2689 10.9174 11.7616 11.0357 11.3304 11.5007C10.8992 11.9742 9.69019 13.1071 9.69019 15.4152C9.69019 17.7234 11.3727 19.9554 11.6009 20.2682C11.8377 20.5811 14.9067 25.3157 19.616 27.3533C22.592 28.6384 23.7588 28.7483 25.2468 28.5285C26.1515 28.3932 28.02 27.3955 28.4089 26.2964C28.7978 25.1973 28.7978 24.2589 28.6794 24.0644C28.5695 23.853 28.2567 23.7347 27.7917 23.5064Z" fill="white"/>
</svg>
